<?xml version="1.0" encoding="UTF-8" standalone="no"?>
<!DOCTYPE svg PUBLIC "-//W3C//DTD SVG 1.1//EN" "http://www.w3.org/Graphics/SVG/1.1/DTD/svg11.dtd">
<svg width="100%" height="100%" viewBox="0 0 16 16" version="1.1" xmlns="http://www.w3.org/2000/svg" xmlns:xlink="http://www.w3.org/1999/xlink" xml:space="preserve" xmlns:serif="http://www.serif.com/" style="fill-rule:evenodd;clip-rule:evenodd;stroke-linejoin:round;stroke-miterlimit:2;">
    <rect id="proficiency-expert" serif:id="proficiency/expert" x="0" y="0" width="16" height="16" style="fill:none;"/>
    <g id="proficiency-expert1" serif:id="proficiency/expert">
        <g transform="matrix(1,0,0,1,0,-54)">
            <path d="M8,55C11.863,55 15,58.137 15,62C15,65.863 11.863,69 8,69C4.137,69 1,65.863 1,62C1,58.137 4.137,55 8,55ZM10.625,60.25C9.659,60.25 8.875,61.034 8.875,62C8.875,62.966 9.659,63.75 10.625,63.75C11.591,63.75 12.375,62.966 12.375,62C12.375,61.034 11.591,60.25 10.625,60.25ZM5.375,60.25C4.409,60.25 3.625,61.034 3.625,62C3.625,62.966 4.409,63.75 5.375,63.75C6.341,63.75 7.125,62.966 7.125,62C7.125,61.034 6.341,60.25 5.375,60.25Z" fill="currentColor"/>
        </g>
    </g>
</svg>
