<?xml version="1.0" encoding="UTF-8" standalone="no"?>
<!DOCTYPE svg PUBLIC "-//W3C//DTD SVG 1.1//EN" "http://www.w3.org/Graphics/SVG/1.1/DTD/svg11.dtd">
<svg width="100%" height="100%" viewBox="0 0 16 16" version="1.1" xmlns="http://www.w3.org/2000/svg" xmlns:xlink="http://www.w3.org/1999/xlink" xml:space="preserve" xmlns:serif="http://www.serif.com/" style="fill-rule:evenodd;clip-rule:evenodd;stroke-linejoin:round;stroke-miterlimit:2;">
    <g transform="matrix(1,0,0,1,0,-36)">
        <g id="proficiency-half" serif:id="proficiency/half" transform="matrix(1,0,0,1,0,36)">
            <rect x="0" y="0" width="16" height="16" style="fill:none;"/>
            <g transform="matrix(0.875,0,0,0.875,1,-46.25)">
                <path d="M8,54C12.415,54 16,57.585 16,62C16,66.415 12.415,70 8,70C3.585,70 0,66.415 0,62C0,57.585 3.585,54 8,54ZM8,68C11.311,68 14,65.311 14,62C14,58.689 11.311,56 8,56L8,68Z" fill="currentColor"/>
            </g>
        </g>
    </g>
</svg>
