<?xml version="1.0" encoding="UTF-8" standalone="no"?>
<!DOCTYPE svg PUBLIC "-//W3C//DTD SVG 1.1//EN" "http://www.w3.org/Graphics/SVG/1.1/DTD/svg11.dtd">
<svg width="100%" height="100%" viewBox="0 0 44 30" version="1.1" xmlns="http://www.w3.org/2000/svg" xmlns:xlink="http://www.w3.org/1999/xlink" xml:space="preserve" xmlns:serif="http://www.serif.com/" style="fill-rule:evenodd;clip-rule:evenodd;stroke-linejoin:round;stroke-miterlimit:2;">
    <g transform="matrix(1,0,0,1,-37,0)">
        <g id="logo" transform="matrix(1.12821,0,0,1.11111,23.4615,-1.11111)">
            <rect x="12" y="1" width="39" height="27" style="fill:none;"/>
            <g transform="matrix(3.17614,0,0,3.225,1.12712,-12.7922)">
                <path d="M13.749,7.346L14.028,7.346L14.028,7.905L14.586,7.905L14.586,8.184L14.307,8.184L14.307,8.463L14.028,8.463L14.028,8.184L13.749,8.184L13.749,7.346ZM14.307,6.509L14.307,6.23L14.586,6.23L14.586,6.509L14.307,6.509ZM13.749,7.346L13.191,7.346L13.191,7.905L13.47,7.905L13.47,8.184L13.191,8.184L13.191,8.463L12.633,8.463L12.633,8.184L12.354,8.184L12.354,7.905L12.633,7.905L12.633,5.393L12.912,5.393L12.912,5.114L13.191,5.114L13.191,6.509L13.47,6.509L13.47,6.788L13.191,6.788L13.191,7.067L13.749,7.067L13.749,7.346ZM13.47,6.509L13.47,6.23L14.028,6.23L14.028,6.509L14.307,6.509L14.307,7.067L13.749,7.067L13.749,6.509L13.47,6.509ZM8.447,5.114L9.005,5.114L9.005,5.672L8.447,5.672L8.447,5.114ZM8.167,7.905L8.447,7.905L8.447,6.788L8.167,6.788L8.167,6.509L8.447,6.509L8.447,6.23L9.005,6.23L9.005,6.509L9.284,6.509L9.284,6.788L9.005,6.788L9.005,7.905L9.284,7.905L9.284,8.184L9.005,8.184L9.005,8.463L8.447,8.463L8.447,8.184L8.167,8.184L8.167,7.905ZM9.842,7.905L10.121,7.905L10.121,6.788L9.563,6.788L9.563,6.509L9.842,6.509L9.842,6.23L10.4,6.23L10.4,6.509L10.958,6.509L10.958,6.23L11.516,6.23L11.516,6.509L12.074,6.509L12.074,6.788L11.795,6.788L11.795,7.905L12.074,7.905L12.074,8.184L11.795,8.184L11.795,8.463L11.516,8.463L11.516,8.184L11.237,8.184L11.237,6.788L10.679,6.788L10.679,7.905L10.958,7.905L10.958,8.184L10.679,8.184L10.679,8.463L10.121,8.463L10.121,8.184L9.842,8.184L9.842,7.905Z" fill="currentColor"/>
            </g>
            <g transform="matrix(0.886364,0,0,0.9,12.8864,1)">
                <path d="M2,15L2,8L3,8L3,14L9,14L9,22L8,22L8,23L7,23L7,19L8,19L8,15L2,15ZM3,8L3,7L4,7L4,8L3,8ZM4,7L4,6L5,6L5,7L4,7ZM5,6L5,5L6,5L6,6L5,6ZM6,5L6,4L7,4L7,5L6,5ZM7,4L7,3L13,3L13,4L7,4ZM13,4L14,4L14,5L13,5L13,4ZM13,5L13,6L12,6L12,5L13,5ZM12,6L12,7L11,7L11,6L12,6ZM11,7L11,8L10,8L10,7L11,7ZM10,8L10,9L11,9L11,10L5,10L5,8L10,8ZM11,10L12,10L12,11L11,11L11,10ZM12,11L13,11L13,12L12,12L12,11ZM13,12L14,12L14,21L13,21L13,12ZM13,21L13,22L12,22L12,21L13,21ZM12,22L12,23L11,23L11,22L12,22ZM11,23L11,24L10,24L10,23L11,23ZM10,24L10,25L9,25L9,24L10,24ZM9,25L9,26L8,26L8,25L9,25ZM8,26L8,27L7,27L7,26L8,26ZM7,27L7,28L5,28L5,27L7,27ZM5,27L4,27L4,26L5,26L5,27ZM4,26L3,26L3,25L4,25L4,26ZM3,25L2,25L2,19L3,19L3,25ZM3,19L3,18L7,18L7,19L3,19Z" fill="currentColor"/>
            </g>
            <g transform="matrix(0.886364,0,0,0.9,12.8864,1)">
                <path d="M15,25L14,25L14,24L15,24L15,25ZM15,24L15,20L16,20L16,24L15,24ZM16,20L16,19L17,19L17,20L16,20ZM17,19L17,18L18,18L18,19L17,19ZM18,18L18,17L21,17L21,18L18,18ZM21,18L22,18L22,19L21,19L21,18ZM22,19L23,19L23,21L22,21L22,19ZM22,21L22,22L20,22L20,21L22,21ZM20,22L20,23L21,23L21,25L20,25L20,24L18,24L18,22L20,22ZM20,25L20,26L18,26L18,25L20,25ZM18,26L18,27L16,27L16,26L18,26ZM16,26L15,26L15,25L16,25L16,26ZM20,21L18,21L18,19L19,19L19,20L20,20L20,21Z" fill="currentColor"/>
            </g>
            <g transform="matrix(0.886364,0,0,0.9,10.2273,1)">
                <path d="M21,25L21,26L19,26L19,25L21,25ZM21,25L21,24L23,24L23,25L21,25ZM23,21L23,22L22,22L22,21L23,21ZM23,21L23,20L24,20L24,19L25,19L25,21L23,21Z"  fill="currentColor" style="fill-opacity:0.1;"/>
            </g>
            <g transform="matrix(0.477273,0,0,0.9,22.7045,1)">
                <path d="M37,17L37,18L24,18L24,17L37,17ZM53.714,17L53.714,18L51.857,18L51.857,17L53.714,17ZM50,17L50,18L46.286,18L46.286,17L50,17ZM44.429,17L44.429,18L38.857,18L38.857,17L44.429,17Z" fill="currentColor"/>
            </g>
            <g transform="matrix(0.886364,0,0,0.9,10.2273,1)">
                <path d="M10,26L10,25L11,25L11,26L10,26ZM12,24L12,23L13,23L13,24L12,24ZM13,23L13,22L14,22L14,23L13,23ZM14,22L14,21L15,21L15,22L14,22ZM11,25L11,24L12,24L12,25L11,25ZM15,21L15,12L16,12L16,21L15,21ZM10,26L10,27L8,27L8,26L10,26ZM15,5L15,4L16,4L16,5L15,5ZM13,7L13,8L10,8L10,7L13,7ZM14,6L14,5L15,5L15,6L14,6ZM13,7L13,6L14,6L14,7L13,7Z"  fill="currentColor" style="fill-opacity:0.1;"/>
            </g>
        </g>
    </g>
</svg>
