<?xml version="1.0" encoding="UTF-8" standalone="no"?>
<!DOCTYPE svg PUBLIC "-//W3C//DTD SVG 1.1//EN" "http://www.w3.org/Graphics/SVG/1.1/DTD/svg11.dtd">
<svg width="100%" height="100%" viewBox="0 0 16 16" version="1.1" xmlns="http://www.w3.org/2000/svg" xmlns:xlink="http://www.w3.org/1999/xlink" xml:space="preserve" xmlns:serif="http://www.serif.com/" style="fill-rule:evenodd;clip-rule:evenodd;stroke-linejoin:round;stroke-miterlimit:2;">
    <g transform="matrix(1,0,0,1,-34,0)">
        <g id="sortcoins" transform="matrix(1,0,0,1,34,0)">
            <rect x="0" y="0" width="16" height="16" style="fill:none;"/>
            <g transform="matrix(1,0,0,0.966761,-1,1.13295)">
                <path d="M9.004,13.827C8.933,13.925 8.855,14.018 8.77,14.106C8.303,14.589 7.669,14.861 7.008,14.861L3.992,14.861C3.331,14.861 2.697,14.589 2.23,14.106C1.763,13.622 1.5,12.967 1.5,12.283L1.5,9.164C1.5,8.48 1.763,7.824 2.23,7.341C2.697,6.858 3.331,6.586 3.992,6.586L4.996,6.586C5.067,6.488 5.145,6.394 5.23,6.307C5.697,5.823 6.331,5.552 6.992,5.552L10.008,5.552C10.059,5.552 10.11,5.553 10.16,5.556C10.378,5.085 10.5,4.557 10.5,4C10.5,3.083 10.17,2.245 9.625,1.607C9.458,1.411 9.458,1.118 9.625,0.922C10.45,-0.045 11.657,-0.655 13,-0.655C14.343,-0.655 15.55,-0.045 16.375,0.922C16.542,1.118 16.542,1.411 16.375,1.607C15.83,2.245 15.5,3.083 15.5,4C15.5,4.917 15.83,5.755 16.375,6.393C16.542,6.589 16.542,6.882 16.375,7.078C15.55,8.045 14.343,8.655 13,8.655C12.831,8.655 12.664,8.645 12.5,8.626L12.5,11.249C12.5,11.932 12.237,12.588 11.77,13.072C11.303,13.555 10.669,13.827 10.008,13.827L9.004,13.827ZM7.008,6.586C7.669,6.586 8.303,6.858 8.77,7.341C9.237,7.824 9.5,8.48 9.5,9.164L9.5,12.283C9.5,12.455 9.483,12.626 9.451,12.792L10.008,12.792C10.404,12.792 10.783,12.63 11.063,12.34C11.343,12.051 11.5,11.658 11.5,11.249L11.5,8.129C11.5,7.72 11.343,7.328 11.063,7.038C10.783,6.749 10.404,6.586 10.008,6.586L7.008,6.586ZM11.138,5.832C11.369,5.954 11.583,6.113 11.77,6.307C12.109,6.657 12.34,7.098 12.442,7.574C12.623,7.605 12.81,7.62 13,7.62C13.896,7.62 14.714,7.271 15.333,6.698C14.809,5.936 14.5,5.005 14.5,4C14.5,2.995 14.809,2.064 15.333,1.302C14.714,0.729 13.896,0.38 13,0.38C12.104,0.38 11.286,0.729 10.667,1.302C11.191,2.064 11.5,2.995 11.5,4C11.5,4.65 11.371,5.269 11.138,5.832ZM7.008,7.62L3.992,7.62C3.596,7.62 3.217,7.783 2.937,8.072C2.657,8.362 2.5,8.755 2.5,9.164L2.5,12.283C2.5,12.692 2.657,13.085 2.937,13.375C3.217,13.664 3.596,13.827 3.992,13.827L7.008,13.827C7.404,13.827 7.783,13.664 8.063,13.375C8.343,13.085 8.5,12.692 8.5,12.283L8.5,9.164C8.5,8.755 8.343,8.362 8.063,8.072C7.783,7.783 7.404,7.62 7.008,7.62ZM5.5,9.689C6.052,9.689 6.5,10.153 6.5,10.723C6.5,11.294 6.052,11.758 5.5,11.758C4.948,11.758 4.5,11.294 4.5,10.723C4.5,10.153 4.948,9.689 5.5,9.689ZM5.605,1.166C5.599,0.927 5.698,0.688 5.894,0.531C6.221,0.268 6.693,0.329 6.947,0.666L8.053,2.136L6.632,3.279C6.305,3.542 5.834,3.482 5.58,3.144C5.488,3.022 5.437,2.881 5.425,2.738C4.505,2.857 3.924,3.301 3.731,4.173C3.639,4.59 3.237,4.852 2.833,4.756C2.43,4.661 2.177,4.245 2.269,3.827C2.626,2.208 3.719,1.275 5.605,1.166Z" fill="currentColor"/>
            </g>
        </g>
    </g>
</svg>
