<?xml version="1.0" encoding="UTF-8" standalone="no"?>
<!DOCTYPE svg PUBLIC "-//W3C//DTD SVG 1.1//EN" "http://www.w3.org/Graphics/SVG/1.1/DTD/svg11.dtd">
<svg width="100%" height="100%" viewBox="0 0 16 16" version="1.1" xmlns="http://www.w3.org/2000/svg" xmlns:xlink="http://www.w3.org/1999/xlink" xml:space="preserve" xmlns:serif="http://www.serif.com/" style="fill-rule:evenodd;clip-rule:evenodd;stroke-linejoin:round;stroke-miterlimit:2;">
    <rect id="copper" x="0" y="0" width="16" height="16" style="fill:none;"/>
    <g id="copper1" serif:id="copper">
        <g transform="matrix(1.71429,0,0,1.71429,0.285714,-8.28571)">
            <path d="M6.259,5.417C6.875,5.417 7.467,5.662 7.903,6.097C8.338,6.533 8.583,7.125 8.583,7.741L8.583,11.259C8.583,11.875 8.338,12.467 7.903,12.903C7.467,13.338 6.875,13.583 6.259,13.583L2.741,13.583C2.125,13.583 1.533,13.338 1.097,12.903C0.662,12.467 0.417,11.875 0.417,11.259L0.417,7.741C0.417,7.125 0.662,6.533 1.097,6.097C1.533,5.662 2.125,5.417 2.741,5.417L6.259,5.417ZM6.259,6.583L2.741,6.583C2.434,6.583 2.139,6.705 1.922,6.922C1.705,7.139 1.583,7.434 1.583,7.741L1.583,11.259C1.583,11.566 1.705,11.861 1.922,12.078C2.139,12.295 2.434,12.417 2.741,12.417L6.259,12.417C6.566,12.417 6.861,12.295 7.078,12.078C7.295,11.861 7.417,11.566 7.417,11.259L7.417,7.741C7.417,7.434 7.295,7.139 7.078,6.922C6.861,6.705 6.566,6.583 6.259,6.583ZM4.5,8.333C4.58,8.333 4.659,8.342 4.735,8.357L4.954,8.425C5.094,8.484 5.219,8.57 5.325,8.675C5.43,8.781 5.516,8.906 5.575,9.046L5.643,9.265C5.658,9.341 5.667,9.42 5.667,9.5C5.667,9.58 5.658,9.659 5.643,9.735L5.575,9.954C5.516,10.094 5.43,10.219 5.325,10.325C5.219,10.43 5.094,10.516 4.954,10.575L4.735,10.643C4.659,10.658 4.58,10.667 4.5,10.667C4.42,10.667 4.341,10.658 4.265,10.643L4.046,10.575C3.906,10.516 3.781,10.43 3.675,10.325C3.57,10.219 3.484,10.094 3.425,9.954L3.357,9.735C3.342,9.659 3.333,9.58 3.333,9.5C3.333,9.42 3.342,9.341 3.357,9.265L3.425,9.046C3.484,8.906 3.57,8.781 3.675,8.675C3.781,8.57 3.906,8.484 4.046,8.425L4.265,8.357C4.341,8.342 4.42,8.333 4.5,8.333Z" fill="currentColor"/>
        </g>
    </g>
</svg>
