<?xml version="1.0" encoding="UTF-8" standalone="no"?>
<!DOCTYPE svg PUBLIC "-//W3C//DTD SVG 1.1//EN" "http://www.w3.org/Graphics/SVG/1.1/DTD/svg11.dtd">
<svg width="100%" height="100%" viewBox="0 0 16 16" version="1.1" xmlns="http://www.w3.org/2000/svg" xmlns:xlink="http://www.w3.org/1999/xlink" xml:space="preserve" xmlns:serif="http://www.serif.com/" style="fill-rule:evenodd;clip-rule:evenodd;stroke-linejoin:round;stroke-miterlimit:2;">
    <g transform="matrix(1,0,0,1,-72,0)">
        <g id="platinum" transform="matrix(1,0,0,1,72,0)">
            <rect x="0" y="0" width="16" height="16" style="fill:none;"/>
            <clipPath id="_clip1">
                <rect x="0" y="0" width="16" height="16"/>
            </clipPath>
            <g clip-path="url(#_clip1)">
                <g transform="matrix(0.857143,0,0,1,-60.5714,0)">
                    <path d="M72.114,7.349L79.114,0.349C79.336,0.128 79.659,-0 80,-0C80.341,0 80.664,0.128 80.886,0.349L87.886,7.349C88.26,7.724 88.26,8.276 87.886,8.651L80.886,15.651C80.664,15.872 80.341,16 80,16C79.659,16 79.336,15.872 79.114,15.651L72.114,8.651C71.74,8.276 71.74,7.724 72.114,7.349ZM74.537,8L80,13.463L85.463,8L80,2.537L74.537,8Z" fill="currentColor"/>
                </g>
            </g>
        </g>
    </g>
</svg>
