<?xml version="1.0" encoding="UTF-8" standalone="no"?>
<!DOCTYPE svg PUBLIC "-//W3C//DTD SVG 1.1//EN" "http://www.w3.org/Graphics/SVG/1.1/DTD/svg11.dtd">
<svg width="100%" height="100%" viewBox="0 0 16 16" version="1.1" xmlns="http://www.w3.org/2000/svg" xmlns:xlink="http://www.w3.org/1999/xlink" xml:space="preserve" xmlns:serif="http://www.serif.com/" style="fill-rule:evenodd;clip-rule:evenodd;stroke-linejoin:round;stroke-miterlimit:2;">
    <g transform="matrix(1,0,0,1,-18,0)">
        <g id="silver" transform="matrix(1,0,0,1,18,0)">
            <rect x="0" y="0" width="16" height="16" style="fill:none;"/>
            <clipPath id="_clip1">
                <rect x="0" y="0" width="16" height="16"/>
            </clipPath>
            <g clip-path="url(#_clip1)">
                <g transform="matrix(2,0,0,2,-1,-13)">
                    <path d="M4.932,7.248L8.432,13.248C8.522,13.403 8.523,13.594 8.434,13.749C8.344,13.904 8.179,14 8,14L1,14C0.821,14 0.656,13.904 0.566,13.749C0.477,13.594 0.478,13.403 0.568,13.248L4.068,7.248C4.158,7.094 4.322,7 4.5,7C4.678,7 4.842,7.094 4.932,7.248ZM4.5,8.492L1.871,13L7.129,13L4.5,8.492ZM4.5,10.5C4.569,10.5 4.636,10.507 4.701,10.52L4.889,10.579C5.009,10.629 5.117,10.703 5.207,10.793C5.297,10.883 5.371,10.991 5.421,11.111L5.48,11.299C5.493,11.364 5.5,11.431 5.5,11.5C5.5,11.569 5.493,11.636 5.48,11.701L5.421,11.889C5.371,12.009 5.297,12.117 5.207,12.207C5.117,12.297 5.009,12.371 4.889,12.421L4.701,12.48C4.636,12.493 4.569,12.5 4.5,12.5C4.431,12.5 4.364,12.493 4.299,12.48L4.111,12.421C3.991,12.371 3.883,12.297 3.793,12.207C3.703,12.117 3.629,12.009 3.579,11.889L3.52,11.701C3.507,11.636 3.5,11.569 3.5,11.5C3.5,11.431 3.507,11.364 3.52,11.299L3.579,11.111C3.629,10.991 3.703,10.883 3.793,10.793C3.883,10.703 3.991,10.629 4.111,10.579L4.299,10.52C4.364,10.507 4.431,10.5 4.5,10.5Z" fill="currentColor"/>
                </g>
            </g>
        </g>
    </g>
</svg>
